<?xml version="1.0" encoding="utf-8"?>
<!-- Generator: Adobe Illustrator 25.4.1, SVG Export Plug-In . SVG Version: 6.00 Build 0)  -->
<svg version="1.1" id="Layer_1" xmlns="http://www.w3.org/2000/svg" xmlns:xlink="http://www.w3.org/1999/xlink" x="0px" y="0px"
	 viewBox="0 0 473 615" style="enable-background:new 0 0 473 615;" xml:space="preserve">
<style type="text/css">
	.st0{fill-rule:evenodd;clip-rule:evenodd;}
</style>
<g>
	<path class="st0" d="M212.5-0.5c9.3,0,18.7,0,28,0c14.6,2.5,29.3,5.3,44,8.5c7.2,2.3,13.8,5.6,20,10c5,3.2,8.2,7.7,9.5,13.5
		c0.8,8,1.6,16,2.5,24c-1.2,3.1-1.1,6.1,0.5,9c5.1,4.9,9.8,10.2,14,16c2.8,8.9,2.8,17.9,0,27c-3,4-6,8-9,12c-0.5,3.7-1,7.3-1.5,11
		c0.3,10.8,0.7,21.7,1,32.5c28.6,15.4,54.5,34.6,77.5,57.5c6.7,8,13.3,16,20,24c7,10.1,15.5,23.7,23.8,40.5
		c5.1,10.5,13.8,28.4,20.2,53.5c3.6,14.1,9.3,36.8,7.5,66.4c-0.4,6.1-1,11.1-1.5,14.6c-1.3,5.9-3.2,14.2-6,24c0,0-4.4,16.5-10,30
		c-18.9,45.8-48.9,76.8-71.5,95.5c-13.2,9.6-30.4,20.1-51.5,28.5c-8.9,3.6-17.5,6.3-25.5,8.5c-18.1,3.2-36.1,6-54,8.5
		c-9.3,0-18.7,0-28,0c-21.5-2.5-42.8-6.3-64-11.5C92.2,582,45.7,539.5,19,475.5c-10.4-29.6-16.9-59.9-19.5-91c0-2.7,0-5.3,0-8
		c4.3-51.3,22.5-96.9,54.5-137c12.5-14.2,25.3-28,38.5-41.5c12-9.7,24.4-19,37-28c-0.1-8.7,0-17.7,0.4-27.1
		c0.2-4.2,0.4-8.4,0.6-12.4c-0.5-2-1-4-1.5-6c-11.7-10.9-15.7-24.3-12-40c1-1.7,2-3.3,3-5c5-4.3,10-8.7,15-13c0.2-1.5,0.4-3,0.6-4.5
		c0.7-7.1,0.5-13.6-0.1-19.5c1.5-8.8,5.5-16.3,12-22.5C168.1,9.7,189.8,2.9,212.5-0.5z M276.5,119.5c2.1-0.3,4.1,0,6,1
		c-0.6,18.4-0.9,36.7-1,55c0.2,7.7,3.5,13.5,10,17.5c27.4,12.7,52,29.4,74,50c6.5,9.1,13.6,17.6,21.5,25.5
		c8.7,14.4,17.2,28.9,25.5,43.5c-45.2,10.5-90.2,9.8-135-2c-26.7-6.4-52.4-15.8-77-28c-10.9-1.6-21.9-1.9-33-1
		c-13.1,1.6-26.1,3.9-39,7c-24.3,7.1-48.3,14.8-72,23c5.6-12,12.1-23.5,19.5-34.5c19.7-26.6,42.9-49.8,69.5-69.5c4.4-3,9.1-5.7,14-8
		c1.9-1.6,3.4-3.4,4.5-5.5c4.6-10.8,5.6-49.1,7-57c0.5-5,0.7-10,0.5-15C206.7,121.2,241.7,120.5,276.5,119.5z"/>
</g>
</svg>
